<svg width="512" height="336" viewBox="0 0 512 336" fill="none" xmlns="http://www.w3.org/2000/svg">
<rect width="512" height="335.45" fill="#D6062F"/>
<path d="M0 298H512V335H0V298Z" fill="white"/>
<path d="M0 224H512V261H0V224Z" fill="white"/>
<path d="M0 149H512V186H0V149Z" fill="white"/>
<path d="M196 75H512V112H196V75Z" fill="white"/>
<path d="M196 0H512V37H196V0Z" fill="white"/>
<path d="M0 0H195.679V149.089H0V0Z" fill="#2956B0"/>
<path d="M32.7763 8.73047L35.7348 17.8361H45.3091L37.563 23.4642L40.5224 32.5698L32.7763 26.9417L25.0302 32.5698L27.9896 23.4642L20.2435 17.8361H29.8178L32.7763 8.73047Z" fill="white"/>
<path d="M76.1519 8.73047L79.1103 17.8361H88.6847L80.9385 23.4642L83.898 32.5698L76.1519 26.9417L68.4067 32.5698L71.3652 23.4642L63.6191 17.8361H73.1934L76.1519 8.73047Z" fill="white"/>
<path d="M119.527 8.73047L122.486 17.8361H132.06L124.315 23.4642L127.274 32.5698L119.527 26.9417L111.782 32.5698L114.741 23.4642L106.995 17.8361H116.569L119.527 8.73047Z" fill="white"/>
<path d="M162.903 8.73047L165.861 17.8361H175.436L167.69 23.4642L170.649 32.5698L162.903 26.9417L155.158 32.5698L158.116 23.4642L150.37 17.8361H159.944L162.903 8.73047Z" fill="white"/>
<path d="M32.7763 44.6592L35.7348 53.7648H45.3091L37.563 59.392L40.5224 68.4976L32.7763 62.8704L25.0302 68.4976L27.9896 59.392L20.2435 53.7648H29.8178L32.7763 44.6592Z" fill="white"/>
<path d="M76.1519 44.6592L79.1103 53.7648H88.6847L80.9385 59.392L83.898 68.4976L76.1519 62.8704L68.4067 68.4976L71.3652 59.392L63.6191 53.7648H73.1934L76.1519 44.6592Z" fill="white"/>
<path d="M119.527 44.6592L122.486 53.7648H132.06L124.315 59.392L127.274 68.4976L119.527 62.8704L111.782 68.4976L114.741 59.392L106.995 53.7648H116.569L119.527 44.6592Z" fill="white"/>
<path d="M162.903 44.6592L165.861 53.7648H175.436L167.69 59.392L170.649 68.4976L162.903 62.8704L155.158 68.4976L158.116 59.392L150.37 53.7648H159.944L162.903 44.6592Z" fill="white"/>
<path d="M32.7763 80.5898L35.7348 89.6954H45.3091L37.563 95.3226L40.5224 104.428L32.7763 98.801L25.0302 104.428L27.9896 95.3226L20.2435 89.6954H29.8178L32.7763 80.5898Z" fill="white"/>
<path d="M76.1519 80.5898L79.1103 89.6954H88.6847L80.9385 95.3226L83.898 104.428L76.1519 98.801L68.4067 104.428L71.3652 95.3226L63.6191 89.6954H73.1934L76.1519 80.5898Z" fill="white"/>
<path d="M119.527 80.5898L122.486 89.6954H132.06L124.315 95.3226L127.274 104.428L119.527 98.801L111.782 104.428L114.741 95.3226L106.995 89.6954H116.569L119.527 80.5898Z" fill="white"/>
<path d="M162.903 80.5898L165.861 89.6954H175.436L167.69 95.3226L170.649 104.428L162.903 98.801L155.158 104.428L158.116 95.3226L150.37 89.6954H159.944L162.903 80.5898Z" fill="white"/>
<path d="M32.7763 116.518L35.7348 125.623H45.3091L37.563 131.251L40.5224 140.357L32.7763 134.729L25.0302 140.357L27.9896 131.251L20.2435 125.623H29.8178L32.7763 116.518Z" fill="white"/>
<path d="M76.1519 116.518L79.1103 125.623H88.6847L80.9385 131.251L83.898 140.357L76.1519 134.729L68.4067 140.357L71.3652 131.251L63.6191 125.623H73.1934L76.1519 116.518Z" fill="white"/>
<path d="M119.527 116.518L122.486 125.623H132.06L124.315 131.251L127.274 140.357L119.527 134.729L111.782 140.357L114.741 131.251L106.995 125.623H116.569L119.527 116.518Z" fill="white"/>
<path d="M162.903 116.518L165.861 125.623H175.436L167.69 131.251L170.649 140.357L162.903 134.729L155.158 140.357L158.116 131.251L150.37 125.623H159.944L162.903 116.518Z" fill="white"/>
</svg>
